<mxfile host="app.diagrams.net" modified="2024-12-07T13:04:24.994Z" agent="Mozilla/5.0 (Windows NT 10.0; Win64; x64; rv:133.0) Gecko/20100101 Firefox/133.0" version="24.5.5" etag="e5NHh8dvdUdsTULot0Es" type="github">
  <diagram name="第 1 页" id="jNVuO4gLV2JBgTtHcuqB">
    <mxGraphModel>
      <root>
        <mxCell id="0" />
        <mxCell id="1" parent="0" />
      </root>
    </mxGraphModel>
  </diagram>
</mxfile>
